<svg width="13" height="13" viewBox="0 0 13 13" fill="none" xmlns="http://www.w3.org/2000/svg">
<g clip-path="url(#clip0_1_234)">
<path d="M5.95834 2.16666H2.16668C1.87936 2.16666 1.60381 2.28079 1.40064 2.48396C1.19748 2.68712 1.08334 2.96267 1.08334 3.24999V10.8333C1.08334 11.1206 1.19748 11.3962 1.40064 11.5994C1.60381 11.8025 1.87936 11.9167 2.16668 11.9167H9.75001C10.0373 11.9167 10.3129 11.8025 10.516 11.5994C10.7192 11.3962 10.8333 11.1206 10.8333 10.8333V7.04166" stroke="#303030" stroke-linecap="round" stroke-linejoin="round"/>
<path d="M10.0208 1.35416C10.2363 1.13867 10.5286 1.01761 10.8333 1.01761C11.1381 1.01761 11.4304 1.13867 11.6458 1.35416C11.8613 1.56965 11.9824 1.86191 11.9824 2.16666C11.9824 2.4714 11.8613 2.76367 11.6458 2.97916L6.50001 8.12499L4.33334 8.66666L4.87501 6.49999L10.0208 1.35416Z" stroke="#303030" stroke-linecap="round" stroke-linejoin="round"/>
</g>
<defs>
<clipPath id="clip0_1_234">
<rect width="13" height="13" fill="white"/>
</clipPath>
</defs>
</svg>
