<svg width="26" height="26" viewBox="0 0 26 26" fill="none" xmlns="http://www.w3.org/2000/svg">
<path d="M22.75 12.4583C22.7537 13.8882 22.4197 15.2987 21.775 16.575C21.0106 18.1044 19.8356 19.3908 18.3814 20.2901C16.9272 21.1893 15.2514 21.666 13.5417 21.6667C12.1118 21.6704 10.7013 21.3363 9.425 20.6917L3.25 22.75L5.30833 16.575C4.66368 15.2987 4.32961 13.8882 4.33333 12.4583C4.33399 10.7486 4.81066 9.07276 5.70995 7.6186C6.60923 6.16444 7.89561 4.98936 9.425 4.225C10.7013 3.58034 12.1118 3.24627 13.5417 3.25H14.0833C16.3414 3.37457 18.4741 4.32766 20.0732 5.92676C21.6723 7.52587 22.6254 9.65862 22.75 11.9167V12.4583Z" stroke="#555555" stroke-width="2" stroke-linecap="round" stroke-linejoin="round"/>
<circle cx="13" cy="13" r="1.66667" stroke="#555555"/>
</svg>
