<svg width="13" height="13" viewBox="0 0 13 13" fill="none" xmlns="http://www.w3.org/2000/svg">
<path d="M9.20835 11.375V10.2917C9.20835 9.71703 8.98008 9.16593 8.57375 8.7596C8.16742 8.35327 7.61632 8.125 7.04169 8.125H2.70835C2.13372 8.125 1.58262 8.35327 1.17629 8.7596C0.76996 9.16593 0.541687 9.71703 0.541687 10.2917V11.375" stroke="black" stroke-linecap="round" stroke-linejoin="round"/>
<path d="M4.87498 5.95833C6.0716 5.95833 7.04165 4.98828 7.04165 3.79167C7.04165 2.59505 6.0716 1.625 4.87498 1.625C3.67836 1.625 2.70831 2.59505 2.70831 3.79167C2.70831 4.98828 3.67836 5.95833 4.87498 5.95833Z" stroke="black" stroke-linecap="round" stroke-linejoin="round"/>
<path d="M12.4583 11.375V10.2917C12.458 9.81159 12.2982 9.34524 12.0041 8.96582C11.7099 8.58641 11.2981 8.31542 10.8333 8.1954" stroke="black" stroke-linecap="round" stroke-linejoin="round"/>
<path d="M8.66669 1.6954C9.13275 1.81473 9.54583 2.08578 9.84082 2.46582C10.1358 2.84586 10.2959 3.31327 10.2959 3.79436C10.2959 4.27545 10.1358 4.74286 9.84082 5.1229C9.54583 5.50294 9.13275 5.77399 8.66669 5.89332" stroke="black" stroke-linecap="round" stroke-linejoin="round"/>
</svg>
